ply
 format   ascii   1.0
 element   vertex   8
 property   float32   x
 property   float32   y
 property   float32   z
 element   face   2
 property   list   uint8   int32   vertex_index
comment :all 1 Flats: Planes ID: 0 
comment :all 1 Shelds: Planes ID: 1 
end_header
436921.924071 3355225.720042 -19.271779
436921.962443 3355229.384225 -19.271779
436910.687499 3355229.502301 -19.271779
436910.649126 3355225.838118 -19.271779
436921.864487 3355227.248484 -19.453775
436922.065698 3355246.462014 -18.872072
436911.071972 3355246.577144 -18.240450
436910.870761 3355227.363614 -18.822153
4 0 1 2 3 
4 4 5 6 7 
